<svg xmlns="http://www.w3.org/2000/svg" width="32" height="32" class="ui-icon" viewBox="0 0 48 48"><path fill="url(#a)" d="M24 0c20 0 24 4 24 24s-4 24-24 24S0 44 0 24 4 0 24 0Z"/><path fill="#fff" fill-rule="evenodd" d="M24 12.522c3.738 0 4.18.015 5.657.082 1.365.062 2.106.29 2.6.482.653.254 1.12.557 1.61 1.047.49.49.793.956 1.047 1.61.191.493.42 1.235.481 2.6.068 1.476.082 1.918.082 5.657 0 3.738-.014 4.18-.082 5.657-.062 1.365-.29 2.106-.482 2.6a4.341 4.341 0 0 1-1.046 1.61c-.49.49-.957.793-1.61 1.047-.494.191-1.235.42-2.6.481-1.476.068-1.919.082-5.657.082-3.739 0-4.181-.014-5.657-.082-1.365-.062-2.107-.29-2.6-.482a4.342 4.342 0 0 1-1.61-1.046 4.329 4.329 0 0 1-1.047-1.61c-.192-.494-.42-1.235-.482-2.6-.067-1.476-.082-1.919-.082-5.657 0-3.739.015-4.181.082-5.657.062-1.365.29-2.107.482-2.6a4.343 4.343 0 0 1 1.047-1.61 4.33 4.33 0 0 1 1.61-1.047c.493-.192 1.235-.42 2.6-.482 1.476-.067 1.918-.082 5.657-.082ZM24 10c-3.802 0-4.28.016-5.773.085-1.49.067-2.507.304-3.398.65a6.857 6.857 0 0 0-2.48 1.615 6.858 6.858 0 0 0-1.614 2.48c-.346.89-.583 1.908-.65 3.397C10.015 19.721 10 20.197 10 24c0 3.802.016 4.279.085 5.772.067 1.49.304 2.507.65 3.398.358.921.837 1.702 1.615 2.48a6.862 6.862 0 0 0 2.48 1.615c.89.346 1.908.583 3.398.65 1.493.069 1.97.085 5.772.085 3.802 0 4.28-.016 5.773-.084 1.49-.068 2.508-.305 3.398-.651a6.857 6.857 0 0 0 2.48-1.615 6.86 6.86 0 0 0 1.614-2.48c.346-.89.583-1.908.651-3.398.068-1.493.085-1.97.085-5.772 0-3.802-.017-4.28-.085-5.773-.068-1.49-.304-2.508-.65-3.398a6.855 6.855 0 0 0-1.616-2.48 6.86 6.86 0 0 0-2.48-1.614c-.89-.346-1.908-.583-3.398-.65C28.279 10.015 27.802 10 24 10Zm0 6.81a7.189 7.189 0 1 0 0 14.378 7.189 7.189 0 0 0 0-14.377Zm0 11.856a4.666 4.666 0 1 1 0-9.333 4.666 4.666 0 0 1 0 9.333Zm9.153-12.14a1.68 1.68 0 1 1-3.36 0 1.68 1.68 0 0 1 3.36 0Z" clip-rule="evenodd"/><defs><linearGradient id="a" x1="42.81" x2="5.044" y1="5.656" y2="42.485" gradientUnits="userSpaceOnUse"><stop stop-color="#BA00B2"/><stop offset=".5" stop-color="#F40000"/><stop offset="1" stop-color="#FFA800"/></linearGradient></defs></svg>