<svg xmlns="http://www.w3.org/2000/svg" width="32" height="32" class="ui-icon" viewBox="0 0 44 44"><path fill="url(#a)" d="M22 0c18 0 22 4 22 22s-4 22-22 22S0 40 0 22 4 0 22 0Z"/><path fill="#fff" d="M11 22a1048 1048 0 0 1 22-7 261 261 0 0 1-4 18l-3-2-5-3c-3-1-1-2 0-3l6-6v-1a227 227 0 0 0-12 7l-3-1-3-1 2-1Z"/><defs><linearGradient id="a" x1="22" x2="22" y1="0" y2="43.7" gradientUnits="userSpaceOnUse"><stop stop-color="#2AABEE"/><stop offset="1" stop-color="#229ED9"/></linearGradient></defs></svg>